<?xml version="1.0" standalone="no"?>
<!DOCTYPE svg PUBLIC "-//W3C//DTD SVG 20010904//EN"
 "http://www.w3.org/TR/2001/REC-SVG-20010904/DTD/svg10.dtd">
<svg version="1.0" xmlns="http://www.w3.org/2000/svg"
 width="1024.000000pt" height="1024.000000pt" viewBox="0 0 1024.000000 1024.000000" 
 preserveAspectRatio="xMidYMid meet">

<g transform="translate(0.000000,1024.000000) scale(0.100000,-0.100000)"
fill="#E3002D" stroke="none">
<path d="M5822 8729 c-29 -19 -37 -20 -78 -10 -25 6 -50 8 -57 4 -7 -4 -21 -7
-32 -8 -13 0 -26 -13 -37 -36 -9 -20 -33 -47 -53 -59 -43 -26 -57 -51 -50 -85
3 -14 7 -36 10 -49 4 -18 15 -26 48 -34 61 -16 78 -39 86 -117 5 -43 14 -75
29 -95 75 -101 74 -99 68 -180 -4 -41 -8 -91 -10 -110 -1 -19 -9 -48 -16 -63
-13 -27 -12 -30 9 -46 13 -10 47 -26 75 -36 28 -10 56 -20 63 -22 6 -3 34 30
62 72 39 59 51 85 51 115 0 27 8 48 25 69 18 20 28 47 32 83 8 68 41 101 148
146 73 30 80 31 96 16 41 -37 113 20 128 100 15 82 -5 115 -81 131 -18 3 -34
18 -49 44 -12 22 -34 45 -48 51 -14 6 -35 27 -46 48 -27 50 -51 51 -129 7 -75
-42 -76 -42 -151 34 -27 28 -52 51 -55 51 -3 0 -20 -10 -38 -21z"/>
<path d="M4715 8707 c-8 -12 -15 -27 -15 -34 0 -21 -42 -36 -123 -43 -114 -10
-136 -41 -137 -192 l0 -67 38 -10 c20 -5 57 -13 81 -16 63 -10 91 -41 84 -93
-8 -60 2 -85 50 -131 45 -43 97 -152 97 -204 0 -32 25 -47 78 -47 105 0 133
39 107 151 -20 89 -14 116 36 172 21 25 42 55 47 67 5 14 41 38 102 68 79 39
96 51 98 72 2 14 8 37 14 52 13 34 3 75 -20 82 -9 3 -55 31 -102 61 -46 30
-99 58 -117 61 -17 3 -34 12 -37 19 -11 30 -69 47 -167 51 -92 3 -99 2 -114
-19z"/>
<path d="M3845 8530 l-50 -29 -32 20 c-35 22 -53 18 -86 -19 -14 -15 -27 -19
-60 -15 -57 6 -100 -22 -129 -84 -24 -51 -39 -59 -175 -93 -39 -10 -42 -13
-62 -72 -28 -83 -27 -89 10 -86 28 3 33 -1 44 -32 9 -26 17 -34 31 -32 11 1
42 -9 69 -23 28 -14 57 -25 66 -25 9 0 28 -18 43 -41 27 -41 90 -78 132 -79
11 0 30 -10 41 -22 32 -34 89 -145 112 -217 23 -70 38 -94 54 -84 5 3 26 6 46
7 29 1 38 6 50 31 17 37 28 45 63 45 18 0 33 9 47 29 27 37 26 45 -3 84 -13
18 -41 63 -61 100 -32 62 -36 78 -41 173 l-6 104 26 11 c16 8 36 33 51 63 27
57 49 189 35 215 -5 9 -11 23 -13 32 -6 19 -102 69 -130 68 -12 -1 -44 -14
-72 -29z"/>
<path d="M6718 8240 c-20 -11 -44 -30 -52 -42 -20 -28 -21 -82 -2 -97 8 -7 16
-28 19 -49 3 -20 9 -51 12 -69 8 -34 -15 -108 -47 -155 -20 -29 -24 -63 -8
-73 25 -16 -1 -86 -58 -158 -32 -40 -33 -62 -3 -72 9 -3 27 -28 38 -55 22 -53
42 -62 84 -39 14 7 30 7 54 -1 32 -11 35 -9 78 34 25 25 67 56 94 69 49 26 95
69 126 120 15 23 24 27 62 27 35 0 51 6 78 29 18 16 65 40 105 53 66 21 72 25
78 55 3 18 1 46 -5 63 -5 17 -8 44 -5 59 9 45 -11 73 -49 69 -29 -3 -34 1 -57
47 -21 43 -30 50 -55 51 -88 4 -85 2 -85 32 0 32 -7 42 -40 65 -31 22 -55 21
-105 -3 -22 -11 -48 -19 -58 -20 -34 0 -87 29 -99 54 -14 32 -47 33 -100 6z"/>
<path d="M2715 7856 c-17 -13 -39 -25 -50 -27 -14 -3 -21 -13 -23 -35 -2 -18
-27 -69 -55 -115 -42 -66 -71 -98 -146 -159 -51 -42 -100 -89 -108 -105 -22
-41 -63 -161 -63 -184 0 -32 46 -60 111 -67 57 -6 59 -8 59 -36 0 -43 15 -65
54 -78 32 -10 43 -7 144 39 60 28 117 51 128 51 39 -1 106 -41 174 -105 l70
-66 30 16 c16 8 45 28 63 45 18 16 45 32 61 36 24 6 27 10 24 42 -3 31 -7 37
-35 44 -34 9 -77 57 -112 126 l-21 42 39 155 c22 85 38 161 35 168 -2 6 -44
38 -92 69 -48 32 -115 80 -149 107 -77 63 -99 69 -138 37z"/>
<path d="M5445 7660 c-15 -17 -26 -19 -66 -14 -39 5 -52 2 -76 -15 -44 -33
-90 -37 -117 -12 -21 20 -149 47 -168 35 -12 -8 -44 -74 -52 -107 -6 -25 -1
-34 39 -70 51 -46 55 -68 24 -122 -20 -33 -20 -37 -5 -60 14 -21 20 -23 36
-15 10 5 32 10 48 10 28 0 30 -3 36 -47 14 -98 15 -100 62 -122 24 -12 44 -24
44 -27 0 -3 -7 -18 -16 -33 -13 -23 -15 -40 -8 -102 l9 -74 73 2 c40 1 84 8
99 15 32 16 51 65 52 135 l1 52 56 17 c69 20 89 39 98 94 4 24 13 48 20 54 7
6 18 31 25 55 9 30 28 59 62 91 54 52 59 74 35 145 -12 34 -19 40 -45 43 -19
2 -40 14 -55 33 -15 17 -34 29 -49 29 -13 0 -46 7 -73 15 -63 19 -67 19 -89
-5z"/>
<path d="M7592 7586 c-102 -64 -117 -89 -87 -147 12 -22 14 -45 9 -96 -6 -55
-12 -72 -39 -102 -48 -54 -55 -73 -55 -149 0 -77 -3 -82 -88 -142 -24 -17 -45
-37 -49 -45 -9 -26 6 -61 32 -73 13 -6 33 -28 43 -49 16 -35 20 -38 60 -37 34
1 50 7 76 33 30 29 36 31 72 23 54 -11 70 -6 95 34 27 45 85 84 124 84 18 0
51 -14 82 -35 55 -37 86 -42 138 -23 29 10 36 8 67 -15 46 -35 62 -34 92 6 32
42 32 58 1 125 -14 30 -25 69 -25 87 0 30 -16 54 -65 94 -13 11 -16 23 -11 53
9 54 -21 101 -82 131 -38 18 -48 29 -55 57 -12 49 -69 96 -135 111 -51 12 -87
38 -119 87 -9 12 -18 22 -22 21 -3 0 -30 -15 -59 -33z"/>
<path d="M3906 7220 c-30 -46 -37 -47 -111 -21 -29 10 -56 16 -59 13 -12 -11
-5 -74 13 -127 11 -30 16 -55 13 -56 -22 -3 -82 4 -110 13 -42 13 -51 5 -67
-59 -13 -51 -19 -53 -71 -32 -29 12 -33 10 -97 -40 -53 -42 -65 -56 -58 -69 5
-10 12 -36 16 -60 10 -60 26 -72 95 -72 85 0 105 -10 126 -67 10 -26 33 -62
52 -79 l33 -32 67 15 c37 9 73 19 81 23 21 11 160 -44 176 -71 5 -6 19 2 40
23 18 18 47 43 64 56 32 24 40 61 22 107 -5 11 -4 30 2 41 7 17 4 29 -14 53
-19 26 -21 34 -11 56 18 40 15 55 -25 119 -40 65 -40 54 -4 195 9 31 9 47 1
56 -9 11 -125 55 -143 55 -3 0 -16 -18 -31 -40z"/>
<path d="M6570 7225 l-75 -22 -3 -88 c-2 -70 0 -91 14 -106 22 -24 12 -47 -23
-55 -51 -11 -55 -13 -48 -33 3 -12 -4 -33 -20 -56 -16 -25 -23 -45 -19 -61 4
-13 -1 -32 -10 -46 -9 -12 -16 -31 -16 -41 0 -11 -11 -32 -25 -49 -30 -35 -32
-66 -7 -99 10 -13 22 -32 25 -42 9 -25 37 -33 101 -29 45 3 56 8 62 24 4 13
11 17 22 13 41 -16 121 -16 159 1 21 9 56 16 77 15 30 -1 47 5 67 25 25 24 33
26 101 23 98 -4 150 -1 168 11 10 6 15 27 16 57 1 26 5 65 9 86 7 34 6 37 -16
37 -13 0 -50 14 -83 30 l-58 29 27 25 c21 20 26 31 21 51 -9 35 -31 41 -73 21
-41 -20 -49 -15 -90 50 -15 24 -33 44 -40 44 -6 0 -34 12 -62 27 -49 25 -51
27 -34 45 16 18 15 21 -25 61 -23 23 -48 49 -55 59 -11 15 -18 14 -87 -7z"/>
<path d="M2005 6858 c-11 -6 -24 -17 -28 -24 -5 -9 -18 -11 -37 -7 -25 4 -35
0 -60 -28 -17 -18 -38 -46 -47 -63 -9 -17 -31 -48 -49 -69 -40 -44 -49 -107
-15 -107 10 0 25 -7 32 -16 11 -14 10 -18 -5 -29 -10 -8 -36 -17 -58 -20 -77
-13 -106 -84 -45 -113 31 -15 32 -26 16 -120 -8 -47 -8 -67 0 -75 6 -6 11 -17
11 -24 0 -19 101 -123 119 -123 9 0 32 18 52 41 l35 41 33 -16 c25 -14 39 -15
62 -7 22 7 38 6 64 -5 33 -14 35 -13 69 17 l35 31 72 -11 c76 -12 95 -20 146
-58 38 -29 48 -25 70 28 10 26 31 50 60 71 42 28 44 33 38 62 -9 37 -9 62 0
98 6 22 3 27 -17 34 -19 6 -77 12 -136 14 -6 0 -28 22 -48 50 -24 33 -50 56
-80 69 -38 17 -49 29 -74 82 -29 61 -29 86 0 104 22 14 10 65 -26 104 -59 66
-141 96 -189 69z"/>
<path d="M5440 6685 c-14 -7 -27 -24 -30 -37 -4 -14 -14 -24 -28 -26 -34 -5
-46 -46 -33 -111 14 -70 14 -140 0 -196 -10 -39 -9 -47 9 -70 20 -25 20 -26 2
-84 -11 -32 -20 -81 -22 -107 l-3 -49 63 -42 c35 -24 71 -43 81 -43 9 0 39 23
66 50 27 28 54 50 59 50 5 0 22 -12 37 -26 35 -34 56 -26 65 23 13 75 55 126
94 116 12 -3 32 5 51 21 17 14 36 26 42 26 7 0 20 14 29 30 14 25 24 30 53 30
60 0 71 12 79 83 8 77 3 93 -35 112 -23 12 -38 13 -75 5 -59 -13 -89 4 -104
59 -6 24 -23 50 -43 66 -17 14 -40 33 -50 41 -11 9 -25 13 -34 10 -18 -7 -83
19 -83 33 0 6 -12 11 -27 11 -16 0 -43 9 -61 20 -38 23 -67 25 -102 5z"/>
<path d="M8142 6579 l-33 -10 3 -100 c3 -113 4 -112 -78 -129 -57 -12 -69 -22
-108 -95 -28 -50 -114 -124 -160 -135 -17 -5 -22 -14 -24 -52 -2 -37 2 -55 23
-87 36 -54 62 -55 153 -9 85 44 100 46 167 15 28 -13 63 -27 80 -31 18 -5 58
-38 106 -88 65 -68 79 -79 95 -70 10 5 34 7 52 5 39 -6 72 18 72 53 0 13 12
59 26 101 14 43 26 94 26 113 0 19 5 45 11 58 9 20 6 28 -30 65 -54 56 -63 76
-63 141 0 33 -8 73 -19 98 -11 24 -22 51 -25 61 -3 10 -15 17 -29 17 -13 0
-34 12 -48 26 -13 14 -35 32 -49 39 -36 18 -110 25 -148 14z"/>
<path d="M4081 6315 c-18 -8 -48 -15 -65 -15 -42 0 -56 -16 -56 -64 0 -34 -33
-139 -59 -186 -4 -8 -28 -25 -52 -37 -24 -13 -54 -35 -67 -50 -24 -26 -24 -40
-5 -120 5 -21 2 -23 -36 -23 -37 0 -44 -4 -62 -35 -12 -20 -30 -40 -40 -45
-10 -6 -23 -19 -29 -30 -8 -16 0 -30 52 -89 34 -39 69 -71 78 -71 8 0 36 7 61
16 29 11 54 14 65 9 20 -9 61 -15 94 -14 124 2 190 -5 200 -21 7 -11 12 -11
22 -2 10 8 18 8 25 1 7 -7 21 -8 34 -3 13 4 51 8 83 8 l59 1 45 65 c28 40 41
69 36 76 -55 72 -87 150 -89 217 -2 51 -7 62 -33 62 -9 0 -27 19 -40 43 -24
43 -44 59 -97 77 l-30 10 0 87 c0 72 -4 91 -21 114 -26 35 -31 36 -73 19z"/>
<path d="M2686 5968 c-12 -16 -14 -36 -10 -73 5 -43 2 -55 -20 -88 -32 -47
-32 -55 -1 -97 33 -45 32 -76 -5 -108 -28 -25 -30 -31 -30 -98 0 -71 0 -72
-34 -92 -25 -15 -36 -30 -44 -64 -6 -24 -21 -53 -32 -63 -11 -10 -20 -21 -20
-25 0 -3 18 -16 40 -29 21 -12 49 -35 60 -51 28 -39 52 -38 115 6 l52 35 53
-33 52 -32 19 23 c10 12 21 45 25 72 6 45 9 49 28 43 11 -4 25 -13 29 -20 12
-20 41 -17 95 10 26 13 70 26 99 29 66 7 187 73 191 104 2 11 -5 38 -15 59
-18 39 -27 44 -107 61 l-40 8 -12 73 c-14 81 -33 118 -69 132 -33 13 -99 87
-105 118 -4 22 -19 32 -85 60 -44 19 -96 35 -115 36 -19 1 -45 7 -57 14 -30
17 -40 15 -57 -10z"/>
<path d="M7450 5808 c-32 -49 -39 -69 -34 -91 3 -16 1 -34 -6 -42 -10 -12 -18
-11 -57 6 -65 28 -91 25 -134 -17 -31 -30 -46 -37 -101 -44 -106 -13 -109 -17
-106 -112 l3 -81 42 -23 c23 -12 54 -31 69 -43 15 -12 37 -21 50 -21 23 0 39
-18 74 -83 22 -42 62 -64 141 -80 60 -12 65 -16 85 -52 18 -36 24 -40 64 -43
24 -2 49 -10 55 -18 9 -13 18 -12 67 10 31 14 59 30 63 36 4 7 -7 43 -25 81
-20 44 -30 80 -28 101 3 29 7 32 33 33 27 0 30 3 33 36 3 34 -1 40 -40 66 -47
31 -57 58 -38 104 10 24 10 33 -3 52 -9 13 -22 40 -30 59 -14 33 -14 35 3 31
16 -4 18 2 16 60 -2 58 -5 67 -32 89 -81 69 -112 66 -164 -14z"/>
<path d="M1682 5588 c-27 -57 -42 -74 -85 -102 -83 -53 -91 -66 -82 -132 6
-54 6 -57 -26 -90 l-33 -34 23 -70 c21 -62 23 -75 12 -110 -12 -42 -5 -71 23
-87 8 -4 28 -38 45 -75 22 -49 41 -75 72 -97 23 -17 48 -31 55 -31 7 0 35 29
62 64 45 56 56 65 94 71 61 10 71 18 83 67 l10 43 75 5 c41 3 103 14 138 24
60 18 64 18 102 1 38 -17 41 -17 60 0 25 23 52 105 48 147 -3 30 -10 36 -76
69 -41 21 -96 39 -125 42 -129 15 -173 45 -212 146 -14 38 -33 75 -42 83 -9 7
-24 32 -34 55 -15 36 -24 44 -61 54 -24 6 -54 15 -68 19 -23 7 -27 2 -58 -62z"/>
<path d="M8347 5628 c-14 -18 -34 -52 -46 -76 -21 -41 -21 -44 -5 -72 15 -24
15 -31 5 -44 -8 -9 -23 -16 -34 -16 -11 0 -66 -16 -123 -35 -72 -25 -116 -34
-150 -33 l-48 3 -14 -58 c-11 -46 -19 -58 -38 -63 -30 -8 -37 -32 -22 -75 20
-53 44 -83 63 -75 9 3 27 -2 41 -11 21 -13 31 -14 63 -4 25 7 71 9 131 4 86
-6 95 -8 119 -35 16 -18 32 -27 43 -24 11 2 32 -7 49 -22 26 -22 30 -31 26
-59 -6 -36 11 -53 53 -53 12 0 36 -17 55 -37 45 -49 57 -42 111 62 32 62 47
81 70 88 47 15 54 25 43 57 -9 24 -6 35 16 68 25 37 25 42 12 69 -8 15 -12 33
-10 39 2 7 -10 33 -26 59 -17 27 -28 51 -26 56 7 11 -15 111 -28 127 -6 8 -20
11 -33 8 -16 -4 -26 1 -38 19 -9 14 -23 25 -31 25 -9 0 -49 32 -91 70 -41 39
-84 70 -94 70 -10 0 -30 -15 -43 -32z"/>
<path d="M5335 5640 c-11 -5 -33 -9 -49 -9 -41 -1 -111 -74 -96 -101 8 -16 5
-19 -23 -25 -17 -4 -50 -18 -73 -31 -22 -13 -50 -24 -61 -24 -26 0 -132 -87
-144 -117 -5 -13 -15 -23 -23 -23 -8 0 -39 -13 -70 -29 -30 -16 -65 -31 -78
-33 -20 -3 -23 -9 -25 -53 -1 -27 -5 -64 -8 -81 -6 -28 -4 -32 26 -44 18 -8
63 -14 100 -14 57 -1 69 -4 73 -19 2 -10 23 -25 45 -34 23 -9 41 -22 41 -30 0
-7 7 -13 15 -13 8 0 25 -10 37 -22 20 -20 40 -25 128 -31 46 -3 59 -12 76 -53
8 -19 21 -34 29 -34 8 0 38 -12 65 -27 l51 -28 54 60 c68 75 70 95 10 151 -52
48 -56 64 -16 64 32 0 41 14 41 66 0 30 -3 34 -25 34 -21 0 -25 5 -25 28 0 15
7 36 15 46 27 35 18 73 -26 121 l-41 45 36 40 c44 49 52 79 33 117 -14 25 -13
31 0 54 23 39 11 59 -34 58 -21 0 -47 -4 -58 -9z"/>
<path d="M6415 5192 c-11 -11 -39 -24 -62 -31 -23 -6 -55 -22 -70 -35 -25 -20
-36 -22 -95 -18 -54 3 -75 0 -111 -17 -30 -15 -53 -19 -75 -15 -23 5 -38 1
-58 -15 -15 -11 -33 -21 -41 -21 -7 0 -18 -10 -24 -22 -5 -13 -16 -34 -24 -47
-12 -21 -12 -30 2 -60 8 -20 21 -55 28 -78 7 -23 25 -63 39 -89 14 -25 26 -55
26 -65 0 -27 66 -89 95 -89 25 0 65 -42 65 -69 0 -9 9 -29 20 -46 11 -16 20
-40 20 -52 0 -28 44 -38 115 -26 l50 8 8 94 9 94 45 44 c46 45 49 59 28 115
-5 12 2 21 27 34 38 19 98 80 98 100 0 7 -13 21 -30 30 -43 26 -44 42 -10 97
l31 49 -38 74 c-21 41 -40 74 -43 74 -3 0 -14 -8 -25 -18z"/>
<path d="M4597 4665 c-45 -42 -51 -44 -91 -39 -45 7 -76 -11 -76 -44 0 -28
-51 -72 -83 -72 -30 0 -67 -23 -118 -74 -22 -22 -42 -30 -79 -34 l-48 -4 -4
-51 c-6 -98 1 -125 34 -136 17 -6 50 -11 73 -11 45 0 80 -28 103 -84 11 -24
17 -28 45 -23 41 6 133 -38 141 -67 4 -14 35 -35 97 -65 l91 -45 19 25 c11 14
19 41 19 67 0 41 1 42 35 42 33 0 35 2 35 33 0 17 -7 63 -17 101 -14 58 -15
78 -4 127 6 32 9 69 5 83 -3 13 2 57 12 96 14 58 15 78 6 104 -7 18 -12 39
-12 48 0 16 -40 38 -69 38 -10 0 -24 7 -31 15 -19 23 -31 18 -83 -30z"/>
<path d="M8453 4643 c-16 -16 -45 -47 -63 -71 -30 -39 -35 -42 -67 -36 -32 6
-39 3 -87 -45 l-53 -52 -46 11 c-26 5 -80 15 -119 20 -48 7 -86 19 -111 36
-21 14 -46 24 -55 22 -26 -5 -69 -105 -75 -176 l-5 -62 54 -36 c30 -20 80 -43
111 -51 32 -8 67 -20 78 -26 11 -6 34 -10 51 -8 24 2 37 -4 52 -24 20 -25 20
-29 6 -56 -17 -34 -10 -53 43 -112 51 -57 75 -120 67 -174 -6 -43 -5 -46 39
-88 65 -62 137 -74 137 -23 0 28 50 130 71 145 9 7 20 27 23 45 4 18 23 64 44
102 30 57 43 71 72 80 49 16 60 45 58 152 -2 70 1 97 14 116 18 27 18 26 -34
100 -10 13 -22 53 -27 90 -11 80 -23 103 -64 128 -44 27 -77 25 -114 -7z"/>
<path d="M7060 4406 c-36 -6 -79 -21 -96 -33 -17 -12 -44 -21 -61 -21 -17 1
-46 -8 -65 -19 -28 -17 -33 -24 -30 -53 3 -28 -3 -39 -38 -72 -38 -34 -42 -42
-36 -70 10 -49 50 -95 90 -102 36 -7 66 -37 66 -67 0 -28 38 -66 74 -73 46 -9
60 -29 61 -89 2 -59 17 -102 47 -134 25 -26 34 -27 105 -11 57 14 67 26 78
101 4 25 13 54 19 63 11 15 17 15 50 3 35 -13 39 -12 52 6 18 25 18 64 -1 71
-8 3 -20 25 -26 47 -10 38 -9 43 11 59 12 10 30 18 40 18 31 0 43 26 38 84 -4
51 -3 55 24 70 15 10 28 24 28 33 0 9 10 27 21 39 26 27 22 50 -20 116 -29 45
-32 47 -68 42 -71 -10 -80 -13 -92 -40 -11 -25 -14 -26 -58 -19 -61 9 -120 33
-127 51 -3 8 -9 14 -13 13 -4 0 -37 -6 -73 -13z"/>
<path d="M1860 4383 c-8 -3 -22 -11 -30 -19 -8 -7 -31 -14 -50 -16 -40 -4 -47
-20 -49 -126 0 -35 -6 -72 -11 -83 -7 -13 -8 -37 -1 -71 5 -32 5 -61 0 -76 -6
-15 -5 -39 1 -64 8 -28 8 -49 0 -74 -11 -31 -8 -41 24 -107 19 -39 36 -81 38
-92 2 -13 13 -21 28 -23 14 -2 29 -10 33 -18 11 -20 25 -17 32 6 11 34 46 44
172 50 143 6 172 20 185 86 17 85 16 84 50 84 17 0 69 14 114 32 84 31 84 32
84 67 0 20 11 60 25 89 14 30 25 60 25 67 0 17 -88 91 -124 105 -39 15 -97 -5
-137 -46 -42 -44 -75 -44 -115 -3 -16 17 -46 39 -66 50 -42 22 -59 47 -52 76
4 12 -6 37 -25 65 -29 43 -32 44 -83 45 -29 1 -60 -1 -68 -4z"/>
<path d="M3434 4324 c-21 -15 -54 -40 -72 -56 -18 -15 -39 -25 -45 -22 -7 4
-24 16 -39 26 -35 24 -148 27 -183 4 -29 -19 -55 -20 -89 -5 -19 9 -29 8 -47
-5 -16 -11 -34 -14 -59 -10 -32 5 -40 2 -58 -21 -12 -15 -22 -37 -22 -47 0
-11 -8 -30 -18 -43 -25 -32 -23 -132 4 -172 10 -15 32 -55 49 -88 29 -57 32
-60 65 -57 27 2 41 -4 72 -35 21 -20 57 -46 81 -58 37 -18 43 -25 47 -61 3
-22 16 -53 28 -69 12 -15 22 -39 22 -53 0 -23 2 -24 43 -18 23 4 66 18 95 31
l53 25 -7 80 c-3 44 -4 80 -1 80 4 0 22 -8 42 -17 33 -16 37 -16 51 -1 24 23
10 64 -26 83 -17 9 -30 21 -30 28 0 7 25 30 55 52 62 45 68 66 36 127 -22 44
-14 62 23 52 35 -8 51 6 66 61 7 25 19 50 26 56 8 6 14 19 14 28 0 21 -103
131 -122 131 -8 0 -33 -12 -54 -26z"/>
<path d="M5772 3805 c-85 -40 -96 -58 -76 -125 24 -79 16 -100 -36 -100 -9 0
-23 -6 -29 -14 -10 -11 -3 -25 35 -67 43 -49 46 -54 39 -93 -13 -82 -16 -146
-6 -164 7 -14 4 -31 -15 -67 -13 -27 -24 -58 -24 -70 0 -12 -7 -30 -15 -41
-20 -27 -19 -30 16 -61 17 -16 35 -38 40 -51 5 -12 15 -25 24 -28 21 -8 99 40
132 81 22 28 30 32 46 23 14 -7 29 -6 56 5 20 8 46 16 59 16 67 4 82 8 104 29
14 12 28 22 33 22 5 0 22 12 37 27 27 26 30 27 74 15 33 -9 50 -9 66 -1 11 6
39 16 62 23 l41 12 3 59 c5 91 -4 121 -38 135 -17 7 -30 20 -30 30 0 10 -7 23
-15 30 -9 8 -15 26 -13 45 3 44 -13 60 -78 85 -86 32 -126 55 -168 98 -33 35
-43 40 -71 35 -29 -5 -33 -2 -39 21 -4 16 -21 36 -41 47 -19 12 -41 33 -47 47
-18 37 -41 36 -126 -3z"/>
<path d="M4697 3559 c-10 -6 -29 -8 -41 -5 -13 3 -50 -1 -82 -10 -32 -8 -75
-13 -94 -10 -55 9 -81 -20 -101 -114 -9 -42 -17 -55 -48 -74 -49 -31 -99 -90
-106 -124 -11 -49 -20 -57 -59 -54 -31 3 -37 0 -46 -22 -5 -14 -14 -26 -18
-26 -5 0 -21 -9 -36 -21 l-26 -20 19 -37 c11 -20 33 -50 50 -66 26 -25 35 -28
70 -22 33 5 41 3 41 -9 0 -9 6 -18 14 -21 8 -3 17 -16 20 -29 4 -17 17 -27 43
-34 44 -12 53 -4 53 50 0 24 7 42 23 57 27 26 47 28 47 7 0 -9 11 -20 24 -27
14 -6 30 -24 37 -40 21 -52 52 -54 106 -6 21 20 21 20 38 -5 9 -14 54 -45 100
-68 70 -35 87 -40 100 -29 8 7 15 19 15 27 0 7 9 31 20 53 27 53 25 75 -9 119
-55 71 -65 109 -33 144 12 14 18 39 19 86 1 36 2 77 3 91 1 14 0 66 -2 115 -5
89 -5 90 -38 113 -35 24 -74 28 -103 11z"/>
<path d="M7402 3535 c-21 -9 -38 -27 -48 -50 -11 -26 -20 -35 -38 -35 -38 0
-56 -10 -56 -31 0 -11 -8 -31 -17 -46 -17 -25 -16 -26 9 -47 14 -11 45 -32 68
-46 23 -14 72 -55 109 -91 l68 -66 5 -76 c4 -67 8 -80 36 -112 19 -21 32 -47
32 -62 0 -15 5 -42 12 -60 9 -25 9 -41 1 -63 -10 -28 -9 -31 18 -47 26 -15 30
-23 27 -53 l-3 -35 70 3 c79 4 79 3 131 103 35 66 62 89 107 89 55 0 127 81
111 124 -4 10 8 23 36 41 35 22 41 30 35 48 -18 59 -17 63 30 112 43 43 47 51
41 83 -3 20 -18 56 -34 81 -26 44 -30 46 -83 52 -31 3 -61 9 -67 13 -6 4 -28
0 -48 -9 -22 -9 -50 -13 -73 -9 -27 4 -41 2 -50 -10 -16 -20 -39 -20 -88 -2
-21 7 -58 20 -83 27 -33 10 -67 35 -134 101 -49 49 -90 88 -90 88 -1 -1 -16
-7 -34 -15z"/>
<path d="M2612 3299 c-13 -5 -37 -20 -55 -33 -20 -16 -53 -27 -87 -32 -30 -4
-67 -13 -83 -21 -24 -12 -26 -16 -16 -36 7 -12 13 -46 14 -77 1 -52 24 -143
46 -182 13 -25 13 -25 -21 -37 -16 -5 -30 -17 -30 -25 0 -17 32 -75 67 -122
17 -23 22 -39 17 -62 -5 -22 -1 -39 15 -60 12 -17 21 -45 21 -66 0 -50 23 -59
165 -66 118 -6 121 -6 175 -43 62 -42 116 -49 143 -19 24 27 21 97 -8 167 -14
33 -25 70 -25 82 0 12 -5 34 -10 49 -9 22 -7 29 10 41 11 8 20 22 20 31 0 38
180 182 227 182 30 0 40 20 17 37 -10 7 -30 46 -44 85 -14 39 -32 74 -40 78
-8 4 -30 14 -48 23 -47 24 -63 21 -113 -16 -93 -71 -128 -75 -180 -21 -18 20
-51 47 -72 60 -21 14 -42 35 -46 47 -13 34 -33 46 -59 36z"/>
<path d="M6536 2786 c-27 -8 -61 -26 -78 -43 l-30 -30 16 -47 c9 -26 16 -61
16 -78 0 -19 9 -42 23 -57 13 -15 33 -52 46 -84 29 -72 25 -118 -18 -187 -17
-27 -33 -62 -36 -77 -3 -16 -16 -47 -27 -70 l-22 -41 30 -66 c21 -49 33 -64
44 -59 8 3 40 11 72 16 48 9 67 7 130 -12 87 -25 110 -21 147 29 22 31 26 32
72 27 53 -7 52 -8 119 90 19 27 39 43 59 48 34 7 51 30 51 68 0 13 16 55 36
93 31 60 35 74 29 114 -4 25 -11 49 -16 55 -5 5 -41 8 -80 7 -69 -3 -72 -2
-125 39 l-54 41 -35 -21 c-20 -12 -40 -21 -46 -21 -5 0 -23 20 -41 44 -17 25
-62 66 -99 92 -60 41 -70 53 -82 93 -15 53 -26 57 -101 37z"/>
<path d="M3715 2661 c-41 -25 -98 -91 -159 -186 l-51 -80 -50 -5 c-36 -4 -64
-15 -97 -39 l-47 -34 -62 13 -62 13 -28 -34 c-33 -39 -52 -89 -47 -121 2 -15
19 -30 53 -47 52 -27 90 -80 104 -146 7 -29 8 -30 80 -36 69 -5 76 -8 108 -42
29 -32 32 -40 22 -59 -15 -28 4 -43 64 -51 23 -3 72 -20 109 -36 86 -39 130
-40 161 -4 12 14 31 33 41 42 65 54 69 70 35 146 -16 37 -20 59 -15 96 4 32 2
60 -7 81 -8 18 -19 56 -26 85 -16 67 -7 96 65 203 29 45 54 85 54 90 0 21 -96
110 -149 139 -32 17 -60 31 -62 31 -2 0 -17 -8 -34 -19z"/>
<path d="M5655 2460 c-10 -11 -38 -31 -61 -45 -32 -19 -44 -32 -44 -49 0 -13
-14 -35 -35 -53 -32 -29 -34 -34 -24 -59 5 -16 15 -34 21 -41 14 -17 5 -121
-17 -191 -13 -42 -24 -57 -56 -78 -46 -29 -74 -81 -84 -160 -9 -63 8 -99 67
-147 39 -31 50 -35 120 -39 74 -5 79 -4 113 25 26 21 57 34 112 45 76 15 77
15 91 -6 12 -18 24 -22 67 -22 48 0 58 4 137 64 91 69 135 114 144 150 6 26
-11 75 -28 80 -64 18 -113 44 -168 86 -36 28 -90 68 -121 90 -59 41 -81 77
-94 156 -4 21 -16 69 -26 106 -16 55 -25 70 -53 87 -41 26 -39 26 -61 1z"/>
<path d="M4500 2363 c-12 -15 -37 -61 -57 -101 -35 -74 -37 -91 -18 -158 5
-16 -3 -25 -44 -48 -28 -15 -74 -54 -103 -88 -29 -33 -75 -83 -101 -109 -30
-31 -46 -53 -41 -61 18 -32 39 -48 63 -48 14 0 43 -5 63 -10 30 -9 39 -17 46
-43 8 -29 12 -32 50 -32 27 -1 52 -9 71 -23 40 -29 57 -28 111 8 25 16 50 30
57 30 7 0 40 -36 73 -80 84 -110 92 -115 161 -92 61 21 79 45 79 108 0 27 13
69 36 117 55 117 42 137 -159 231 -135 63 -136 65 -112 196 16 86 16 88 -5
130 -12 23 -19 49 -16 57 7 18 -49 43 -98 43 -26 0 -40 -7 -56 -27z"/>
</g>
</svg>
